<svg xmlns="http://www.w3.org/2000/svg" xmlns:xlink="http://www.w3.org/1999/xlink" contentStyleType="text/css" height="351px" preserveAspectRatio="none" style="width:186px;height:351px;background:#FFFFFF;" version="1.1" viewBox="0 0 186 351" width="186px" zoomAndPan="magnify"><defs/><g><ellipse cx="93.3486" cy="20" fill="#222222" rx="10" ry="10" style="stroke:#222222;stroke-width:1.0;"/><rect fill="#F1F1F1" height="33.9688" rx="12.5" ry="12.5" style="stroke:#181818;stroke-width:0.5;" width="76.5371" x="55.0801" y="71.3989"/><text fill="#000000" font-family="sans-serif" font-size="12" lengthAdjust="spacing" textLength="56.5371" x="65.0801" y="92.5376">Activity 1</text><polygon fill="#F1F1F1" points="68.749,125.3677,117.9482,125.3677,129.9482,137.3677,117.9482,149.3677,68.749,149.3677,56.749,137.3677,68.749,125.3677" style="stroke:#181818;stroke-width:0.5;"/><text fill="#000000" font-family="sans-serif" font-size="11" lengthAdjust="spacing" textLength="49.1992" x="68.749" y="141.1758">Question</text><text fill="#000000" font-family="sans-serif" font-size="11" lengthAdjust="spacing" textLength="19.0083" x="37.7407" y="134.7734">yes</text><text fill="#000000" font-family="sans-serif" font-size="11" lengthAdjust="spacing" textLength="13.7017" x="129.9482" y="134.7734">no</text><rect fill="#F1F1F1" height="33.9688" rx="12.5" ry="12.5" style="stroke:#181818;stroke-width:0.5;" width="71.498" x="11" y="159.3677"/><text fill="#000000" font-family="sans-serif" font-size="12" lengthAdjust="spacing" textLength="51.498" x="21" y="180.5063">Option 1</text><rect fill="#F1F1F1" height="33.9688" rx="12.5" ry="12.5" style="stroke:#181818;stroke-width:0.5;" width="71.498" x="104.1992" y="159.3677"/><text fill="#000000" font-family="sans-serif" font-size="12" lengthAdjust="spacing" textLength="51.498" x="114.1992" y="180.5063">Option 2</text><polygon fill="#F1F1F1" points="93.3486,199.3364,105.3486,211.3364,93.3486,223.3364,81.3486,211.3364,93.3486,199.3364" style="stroke:#181818;stroke-width:0.5;"/><rect fill="#F1F1F1" height="33.9688" rx="12.5" ry="12.5" style="stroke:#181818;stroke-width:0.5;" width="76.5371" x="55.0801" y="243.3364"/><text fill="#000000" font-family="sans-serif" font-size="12" lengthAdjust="spacing" textLength="56.5371" x="65.0801" y="264.4751">Activity 2</text><ellipse cx="93.3486" cy="329.7041" fill="none" rx="11" ry="11" style="stroke:#222222;stroke-width:1.0;"/><ellipse cx="93.3486" cy="329.7041" fill="#222222" rx="6" ry="6" style="stroke:#222222;stroke-width:1.0;"/><line style="stroke:#181818;stroke-width:1.0;" x1="93.3486" x2="93.3486" y1="30" y2="71.3989"/><polygon fill="#181818" points="89.3486,61.3989,93.3486,71.3989,97.3486,61.3989,93.3486,65.3989" style="stroke:#181818;stroke-width:1.0;"/><text fill="#000000" font-family="sans-serif" font-size="11" lengthAdjust="spacing" textLength="43.8818" x="97.3486" y="51.3047">Starting</text><line style="stroke:#181818;stroke-width:1.0;" x1="56.749" x2="46.749" y1="137.3677" y2="137.3677"/><line style="stroke:#181818;stroke-width:1.0;" x1="46.749" x2="46.749" y1="137.3677" y2="159.3677"/><polygon fill="#181818" points="42.749,149.3677,46.749,159.3677,50.749,149.3677,46.749,153.3677" style="stroke:#181818;stroke-width:1.0;"/><line style="stroke:#181818;stroke-width:1.0;" x1="129.9482" x2="139.9482" y1="137.3677" y2="137.3677"/><line style="stroke:#181818;stroke-width:1.0;" x1="139.9482" x2="139.9482" y1="137.3677" y2="159.3677"/><polygon fill="#181818" points="135.9482,149.3677,139.9482,159.3677,143.9482,149.3677,139.9482,153.3677" style="stroke:#181818;stroke-width:1.0;"/><line style="stroke:#181818;stroke-width:1.0;" x1="46.749" x2="46.749" y1="193.3364" y2="211.3364"/><line style="stroke:#181818;stroke-width:1.0;" x1="46.749" x2="81.3486" y1="211.3364" y2="211.3364"/><polygon fill="#181818" points="71.3486,207.3364,81.3486,211.3364,71.3486,215.3364,75.3486,211.3364" style="stroke:#181818;stroke-width:1.0;"/><line style="stroke:#181818;stroke-width:1.0;" x1="139.9482" x2="139.9482" y1="193.3364" y2="211.3364"/><line style="stroke:#181818;stroke-width:1.0;" x1="139.9482" x2="105.3486" y1="211.3364" y2="211.3364"/><polygon fill="#181818" points="115.3486,207.3364,105.3486,211.3364,115.3486,215.3364,111.3486,211.3364" style="stroke:#181818;stroke-width:1.0;"/><line style="stroke:#181818;stroke-width:1.0;" x1="93.3486" x2="93.3486" y1="105.3677" y2="125.3677"/><polygon fill="#181818" points="89.3486,115.3677,93.3486,125.3677,97.3486,115.3677,93.3486,119.3677" style="stroke:#181818;stroke-width:1.0;"/><line style="stroke:#181818;stroke-width:1.0;" x1="93.3486" x2="93.3486" y1="223.3364" y2="243.3364"/><polygon fill="#181818" points="89.3486,233.3364,93.3486,243.3364,97.3486,233.3364,93.3486,237.3364" style="stroke:#181818;stroke-width:1.0;"/><line style="stroke:#181818;stroke-width:1.0;" x1="93.3486" x2="93.3486" y1="277.3052" y2="318.7041"/><polygon fill="#181818" points="89.3486,308.7041,93.3486,318.7041,97.3486,308.7041,93.3486,312.7041" style="stroke:#181818;stroke-width:1.0;"/><text fill="#000000" font-family="sans-serif" font-size="11" lengthAdjust="spacing" textLength="49.0005" x="97.3486" y="298.6099">Stopping</text><!--SRC=[Aov9B2hXqhLJ20OnClFIhRci79DBCiioIoeL3AsvCjCKD09BKujBClFpD1LACbBp53GgKuirkHGKhFmBGA8WLQavnQaA6ddvoC96GE6ybCmq9FE0Gc2RyWiAm3OL0ra0]--></g></svg>