<svg xmlns="http://www.w3.org/2000/svg" xmlns:xlink="http://www.w3.org/1999/xlink" contentStyleType="text/css" height="235px" preserveAspectRatio="none" style="width:204px;height:235px;background:#FFFFFF;" version="1.1" viewBox="0 0 204 235" width="204px" zoomAndPan="magnify"><defs/><g><!--class Class1--><g id="elem_Class1"><rect codeLine="4" fill="#F1F1F1" height="80.5938" id="Class1" rx="2.5" ry="2.5" style="stroke:#181818;stroke-width:0.5;" width="77.7393" x="63" y="7"/><ellipse cx="78" cy="23" fill="#ADD1B2" rx="11" ry="11" style="stroke:#181818;stroke-width:1.0;"/><path d="M80.9688,28.6406 Q80.3906,28.9375 79.75,29.0781 Q79.1094,29.2344 78.4063,29.2344 Q75.9063,29.2344 74.5781,27.5938 Q73.2656,25.9375 73.2656,22.8125 Q73.2656,19.6875 74.5781,18.0313 Q75.9063,16.375 78.4063,16.375 Q79.1094,16.375 79.75,16.5313 Q80.4063,16.6875 80.9688,16.9844 L80.9688,19.7031 Q80.3438,19.125 79.75,18.8594 Q79.1563,18.5781 78.5313,18.5781 Q77.1875,18.5781 76.5,19.6563 Q75.8125,20.7188 75.8125,22.8125 Q75.8125,24.9063 76.5,25.9844 Q77.1875,27.0469 78.5313,27.0469 Q79.1563,27.0469 79.75,26.7813 Q80.3438,26.5 80.9688,25.9219 L80.9688,28.6406 Z " fill="#000000"/><text fill="#000000" font-family="sans-serif" font-size="14" lengthAdjust="spacing" textLength="45.7393" x="92" y="27.8467">Class1</text><line style="stroke:#181818;stroke-width:0.5;" x1="64" x2="139.7393" y1="39" y2="39"/><text fill="#000000" font-family="sans-serif" font-size="14" lengthAdjust="spacing" textLength="39.8057" x="69" y="55.9951">Alpha</text><line style="stroke:#181818;stroke-width:0.5;" x1="64" x2="139.7393" y1="63.2969" y2="63.2969"/><text fill="#000000" font-family="sans-serif" font-size="14" lengthAdjust="spacing" textLength="40.79" x="69" y="80.292">Bravo</text></g><!--class Class2--><g id="elem_Class2"><rect codeLine="9" fill="#F1F1F1" height="80.5938" id="Class2" rx="2.5" ry="2.5" style="stroke:#181818;stroke-width:0.5;" width="77.7393" x="7" y="147.6"/><ellipse cx="22" cy="163.6" fill="#ADD1B2" rx="11" ry="11" style="stroke:#181818;stroke-width:1.0;"/><path d="M24.9688,169.2406 Q24.3906,169.5375 23.75,169.6781 Q23.1094,169.8344 22.4063,169.8344 Q19.9063,169.8344 18.5781,168.1938 Q17.2656,166.5375 17.2656,163.4125 Q17.2656,160.2875 18.5781,158.6313 Q19.9063,156.975 22.4063,156.975 Q23.1094,156.975 23.75,157.1313 Q24.4063,157.2875 24.9688,157.5844 L24.9688,160.3031 Q24.3438,159.725 23.75,159.4594 Q23.1563,159.1781 22.5313,159.1781 Q21.1875,159.1781 20.5,160.2563 Q19.8125,161.3188 19.8125,163.4125 Q19.8125,165.5063 20.5,166.5844 Q21.1875,167.6469 22.5313,167.6469 Q23.1563,167.6469 23.75,167.3813 Q24.3438,167.1 24.9688,166.5219 L24.9688,169.2406 Z " fill="#000000"/><text fill="#000000" font-family="sans-serif" font-size="14" lengthAdjust="spacing" textLength="45.7393" x="36" y="168.4467">Class2</text><line style="stroke:#181818;stroke-width:0.5;" x1="8" x2="83.7393" y1="179.6" y2="179.6"/><text fill="#000000" font-family="sans-serif" font-size="14" lengthAdjust="spacing" textLength="49.376" x="13" y="196.5951">Charlie</text><line style="stroke:#181818;stroke-width:0.5;" x1="8" x2="83.7393" y1="203.8969" y2="203.8969"/><text fill="#000000" font-family="sans-serif" font-size="14" lengthAdjust="spacing" textLength="37.3516" x="13" y="220.892">Delta</text></g><!--class Class3--><g id="elem_Class3"><rect codeLine="14" fill="#F1F1F1" height="80.5938" id="Class3" rx="2.5" ry="2.5" style="stroke:#181818;stroke-width:0.5;" width="77.7393" x="120" y="147.6"/><ellipse cx="135" cy="163.6" fill="#ADD1B2" rx="11" ry="11" style="stroke:#181818;stroke-width:1.0;"/><path d="M137.9688,169.2406 Q137.3906,169.5375 136.75,169.6781 Q136.1094,169.8344 135.4063,169.8344 Q132.9063,169.8344 131.5781,168.1938 Q130.2656,166.5375 130.2656,163.4125 Q130.2656,160.2875 131.5781,158.6313 Q132.9063,156.975 135.4063,156.975 Q136.1094,156.975 136.75,157.1313 Q137.4063,157.2875 137.9688,157.5844 L137.9688,160.3031 Q137.3438,159.725 136.75,159.4594 Q136.1563,159.1781 135.5313,159.1781 Q134.1875,159.1781 133.5,160.2563 Q132.8125,161.3188 132.8125,163.4125 Q132.8125,165.5063 133.5,166.5844 Q134.1875,167.6469 135.5313,167.6469 Q136.1563,167.6469 136.75,167.3813 Q137.3438,167.1 137.9688,166.5219 L137.9688,169.2406 Z " fill="#000000"/><text fill="#000000" font-family="sans-serif" font-size="14" lengthAdjust="spacing" textLength="45.7393" x="149" y="168.4467">Class3</text><line style="stroke:#181818;stroke-width:0.5;" x1="121" x2="196.7393" y1="179.6" y2="179.6"/><text fill="#000000" font-family="sans-serif" font-size="14" lengthAdjust="spacing" textLength="33.9814" x="126" y="196.5951">Echo</text><line style="stroke:#181818;stroke-width:0.5;" x1="121" x2="196.7393" y1="203.8969" y2="203.8969"/><text fill="#000000" font-family="sans-serif" font-size="14" lengthAdjust="spacing" textLength="50.2031" x="126" y="220.892">Foxtrot</text></g><!--link Class1 to Class2--><g id="link_Class1_Class2"><path codeLine="19" d="M79.0761,104.6989 C71.5761,123.2589 73.9159,117.4841 66.4159,136.0441 " fill="none" id="Class1-Class2" style="stroke:#181818;stroke-width:1.0;"/><polygon fill="none" points="85.82,88.01,73.5131,102.4509,84.6391,106.9469,85.82,88.01" style="stroke:#181818;stroke-width:1.0;"/><polygon fill="none" points="61.92,147.17,67.8766,143.1057,66.4159,136.0441,60.4593,140.1084,61.92,147.17" style="stroke:#181818;stroke-width:1.0;"/></g><!--link Class1 to Class3--><g id="link_Class1_Class3"><path codeLine="20" d="M125.0517,104.6549 C132.6917,123.2149 130.3373,117.5113 137.9673,136.0713 " fill="none" id="Class1-Class3" style="stroke:#181818;stroke-width:1.0;"/><polygon fill="none" points="118.2,88.01,119.5034,106.9388,130.6,102.3711,118.2,88.01" style="stroke:#181818;stroke-width:1.0;"/><polygon fill="#181818" points="142.53,147.17,143.9482,140.0997,137.9673,136.0713,136.5491,143.1415,142.53,147.17" style="stroke:#181818;stroke-width:1.0;"/></g><!--SRC=[NSxF2i8m30RmUv_YOvU1k8Dw4oyw5NoCqcMqa3NITVvXxjsrR8VDI-0B-IN9SQlnbWvFxIEYmBgA42qXApCO5mpJEcMFpXjf6afZrhLWvsclyX6CWqePrcsBCjKDUWNqjIEk1XpvRdNA3KKhlyOfw8UeOK6s2r9Q7TZH79s9e_v3kmMw62jpSPLN31AJcRuwV8f2fdlptcfQzmK0]--></g></svg>