<svg xmlns="http://www.w3.org/2000/svg" xmlns:xlink="http://www.w3.org/1999/xlink" contentStyleType="text/css" height="44px" preserveAspectRatio="none" style="width:105px;height:44px;background:#FFFFFF;" version="1.1" viewBox="0 0 105 44" width="105px" zoomAndPan="magnify"><title>&lt;&amp;heart&gt; Demo &lt;&amp;heart&gt;</title><defs/><g><path d="M13.3333,14.6302 C12.6917,14.6302 12.12,14.8985 11.6883,15.3185 C11.2683,15.7385 11,16.3102 11,16.9635 C11,17.6052 11.2683,18.1769 11.6883,18.6085 L15.6667,22.5869 L19.645,18.6085 C20.065,18.1885 20.3333,17.6169 20.3333,16.9635 C20.3333,16.3219 20.065,15.7502 19.645,15.3185 C19.225,14.8985 18.6533,14.6302 18,14.6302 C17.3583,14.6302 16.7867,14.8985 16.355,15.3185 C15.935,15.7385 15.6667,16.3102 15.6667,16.9635 C15.6667,16.3219 15.3983,15.7502 14.9783,15.3185 C14.5583,14.8985 13.9867,14.6302 13.3333,14.6302 " fill="#000000" style="stroke:;stroke-width:0.0;stroke-dasharray:;"/><text fill="#000000" font-family="sans-serif" font-size="14" font-weight="bold" lengthAdjust="spacing" textLength="45.3223" x="26.2074" y="22.9951">Demo</text><path d="M79.737,14.6302 C79.0953,14.6302 78.5236,14.8985 78.092,15.3185 C77.672,15.7385 77.4036,16.3102 77.4036,16.9635 C77.4036,17.6052 77.672,18.1769 78.092,18.6085 L82.0703,22.5869 L86.0486,18.6085 C86.4686,18.1885 86.737,17.6169 86.737,16.9635 C86.737,16.3219 86.4686,15.7502 86.0486,15.3185 C85.6286,14.8985 85.057,14.6302 84.4036,14.6302 C83.762,14.6302 83.1903,14.8985 82.7586,15.3185 C82.3386,15.7385 82.0703,16.3102 82.0703,16.9635 C82.0703,16.3219 81.802,15.7502 81.382,15.3185 C80.962,14.8985 80.3903,14.6302 79.737,14.6302 " fill="#000000" style="stroke:;stroke-width:0.0;stroke-dasharray:;"/><!--SRC=[AyaioKcrKh1HoqXDB2gnKt19pSs7ym00]--></g></svg>