<svg xmlns="http://www.w3.org/2000/svg" xmlns:xlink="http://www.w3.org/1999/xlink" contentStyleType="text/css" height="86px" preserveAspectRatio="none" style="width:498px;height:86px;background:#FFFFFF;" version="1.1" viewBox="0 0 498 86" width="498px" zoomAndPan="magnify"><defs/><g><!--entity User1--><g id="elem_User1"><ellipse cx="26.4087" cy="14" fill="#F1F1F1" rx="8" ry="8" style="stroke:#181818;stroke-width:0.5;"/><path d="M26.4087,22 L26.4087,49 M13.4087,30 L39.4087,30 M26.4087,49 L13.4087,64 M26.4087,49 L39.4087,64 " fill="none" style="stroke:#181818;stroke-width:0.5;"/><text fill="#000000" font-family="sans-serif" font-size="14" lengthAdjust="spacing" textLength="40.8174" x="6" y="78.4951">User1</text></g><g id="elem_Story1"><ellipse cx="151.129" cy="43.6491" fill="#F1F1F1" rx="44.309" ry="14.6291" style="stroke:#181818;stroke-width:0.5;"/><text fill="#000000" font-family="sans-serif" font-size="14" lengthAdjust="spacing" textLength="45.8896" x="125.1841" y="47.3967">Story1</text></g><g id="elem_Story2"><ellipse cx="299.739" cy="43.6491" fill="#F1F1F1" rx="44.309" ry="14.6291" style="stroke:#181818;stroke-width:0.5;"/><text fill="#000000" font-family="sans-serif" font-size="14" lengthAdjust="spacing" textLength="45.8896" x="273.7941" y="47.3967">Story2</text></g><g id="elem_Story3"><ellipse cx="448.359" cy="43.6491" fill="#F1F1F1" rx="44.309" ry="14.6291" style="stroke:#181818;stroke-width:0.5;"/><text fill="#000000" font-family="sans-serif" font-size="14" lengthAdjust="spacing" textLength="45.8896" x="422.4141" y="47.3967">Story3</text></g><!--link User1 to Story1--><g id="link_User1_Story1"><path d="M47.13,43.65 C63.12,43.65 80.25,43.65 100.54,43.65 " fill="none" id="User1-to-Story1" style="stroke:#181818;stroke-width:1.0;"/><polygon fill="#181818" points="106.54,43.65,97.54,39.65,101.54,43.65,97.54,47.65,106.54,43.65" style="stroke:#181818;stroke-width:1.0;"/></g><!--link Story1 to Story2--><g id="link_Story1_Story2"><path d="M195.72,43.65 C214.46,43.65 230.32,43.65 249.07,43.65 " fill="none" id="Story1-to-Story2" style="stroke:#181818;stroke-width:1.0;"/><polygon fill="#181818" points="255.07,43.65,246.07,39.65,250.07,43.65,246.07,47.65,255.07,43.65" style="stroke:#181818;stroke-width:1.0;"/></g><!--link Story2 to Story3--><g id="link_Story2_Story3"><path d="M344.34,43.65 C363.08,43.65 378.93,43.65 397.68,43.65 " fill="none" id="Story2-to-Story3" style="stroke:#181818;stroke-width:1.0;"/><polygon fill="#181818" points="403.68,43.65,394.68,39.65,398.68,43.65,394.68,47.65,403.68,43.65" style="stroke:#181818;stroke-width:1.0;"/></g><!--SRC=[AyxEp2j8B4hCLSZDpyjFpYZApqrLA2agJUNAIKqhKIZ9LoZAJCyeKKZ9B4fDBidCp-CABKujCbJGrRLJq0WkoI-gDDJaWZ6GH8rWeaR8eiQQ0000]--></g></svg>