<svg xmlns="http://www.w3.org/2000/svg" xmlns:xlink="http://www.w3.org/1999/xlink" contentStyleType="text/css" height="125px" preserveAspectRatio="none" style="width:947px;height:125px;background:#FFFFFF;" version="1.1" viewBox="0 0 947 125" width="947px" zoomAndPan="magnify"><defs/><g><!--cluster Demo Node--><g id="cluster_Demo Node"><polygon fill="none" points="16,26,26,16,183,16,183,98.3,173,108.3,16,108.3,16,26" style="stroke:#181818;stroke-width:1.0;"/><line style="stroke:#181818;stroke-width:1.0;" x1="173" x2="183" y1="26" y2="16"/><line style="stroke:#181818;stroke-width:1.0;" x1="16" x2="173" y1="26" y2="26"/><line style="stroke:#181818;stroke-width:1.0;" x1="173" x2="173" y1="26" y2="108.3"/><text fill="#000000" font-family="sans-serif" font-size="14" font-weight="bold" lengthAdjust="spacing" textLength="91.0479" x="49.9761" y="41.9951">Demo Node</text></g><!--cluster Demo Rectangle--><g id="cluster_Demo Rectangle"><rect fill="none" height="87.3" rx="2.5" ry="2.5" style="stroke:#181818;stroke-width:1.0;" width="145" x="207" y="21"/><text fill="#000000" font-family="sans-serif" font-size="14" font-weight="bold" lengthAdjust="spacing" textLength="129.1924" x="214.9038" y="35.9951">Demo Rectangle</text></g><!--cluster Demo Folder--><g id="cluster_Demo Folder"><path d="M378.5,21 L480.0977,21 A3.75,3.75 0 0 1 482.5977,23.5 L489.5977,43.2969 L489.5,43.2969 A2.5,2.5 0 0 1 492,45.7969 L492,105.8 A2.5,2.5 0 0 1 489.5,108.3 L378.5,108.3 A2.5,2.5 0 0 1 376,105.8 L376,23.5 A2.5,2.5 0 0 1 378.5,21 " fill="none" style="stroke:#000000;stroke-width:1.5;"/><line style="stroke:#000000;stroke-width:1.5;" x1="376" x2="489.5977" y1="43.2969" y2="43.2969"/><text fill="#000000" font-family="sans-serif" font-size="14" font-weight="bold" lengthAdjust="spacing" textLength="100.5977" x="380" y="35.9951">Demo Folder</text></g><!--cluster Demo Frame--><g id="cluster_Demo Frame"><rect fill="none" height="87.3" rx="2.5" ry="2.5" style="stroke:#181818;stroke-width:1.0;" width="116" x="516" y="21"/><path d="M626.1943,21 L626.1943,30.2969 L616.1943,40.2969 L516,40.2969 " fill="none" style="stroke:#181818;stroke-width:1.0;"/><text fill="#000000" font-family="sans-serif" font-size="14" font-weight="bold" lengthAdjust="spacing" textLength="100.1943" x="519" y="34.9951">Demo Frame</text></g><!--cluster Demo Cloud--><g id="cluster_Demo Cloud"><path d="M664.168,29.3799 C667.7873,23.058 673.7949,23.8078 677.6024,29.1633 C678.9967,23.6125 683.496,21.6929 687.7908,26.2356 C690.9442,20.273 696.0929,19.4679 700.4294,24.9264 C703.1442,18.6732 707.0565,18.3896 711.3757,23.3619 C717.156,17.8022 721.5907,19.1952 724.4337,26.3731 C728.1591,21.1393 732.0191,20.4108 735.9089,26.202 C739.9943,21.3103 744.2375,21.5333 746.9972,27.5496 C751.2098,22.1336 756.4177,23.1535 759.1116,29.1603 C765.6917,32.0531 765.2316,36.4031 761.0456,41.0475 C769.0781,43.8886 768.9282,48.7836 763.6105,54.2235 C769.6692,57.3836 771.2611,60.9122 766.1036,66.3737 C769.9325,71.3794 768.7082,75.5272 762.6061,77.3759 C767.2889,81.6936 768.5002,86.5243 761.4172,89.7076 C766.0264,94.3816 766.3666,98.407 759.7177,101.4518 C755.95,108.2798 751.9181,107.516 746.9815,102.7341 C743.2844,108.7709 738.3611,109.4252 734.6545,102.7432 C731.6136,106.9733 727.8692,108.1595 724.7489,102.8254 C720.7256,109.4349 715.7171,108.8576 711.3003,103.259 C708.295,107.818 703.7174,108.6817 700.3421,103.6832 C696.4813,108.1026 692.7158,109.1303 689.4221,103.091 C685.1989,107.7873 681.4611,107.6599 677.9058,102.3243 C674.1857,109.1618 667.7651,108.6947 664.6043,101.7832 C659.3338,97.8678 658.7505,93.0004 664.8128,89.2738 C658.7607,86.97 657.8842,82.8385 662.823,78.504 C657.3846,74.4535 656.8506,68.447 663.4857,64.9884 C657.7218,61.7598 658.798,56.9281 663.4458,53.6629 C657.4509,49.8502 658.9426,44.9342 664.1377,41.7727 C659.045,38.0024 658.8773,33.1249 664.168,29.3799 " fill="none" style="stroke:#181818;stroke-width:1.0;"/><text fill="#000000" font-family="sans-serif" font-size="14" font-weight="bold" lengthAdjust="spacing" textLength="94.876" x="663.562" y="46.9951">Demo Cloud</text></g><!--cluster Demo Database--><g id="cluster_Demo Database"><path d="M790,16 C790,6 860,6 860,6 C860,6 930,6 930,16 L930,98.3 C930,108.3 860,108.3 860,108.3 C860,108.3 790,108.3 790,98.3 L790,16 " fill="none" style="stroke:#181818;stroke-width:1.0;"/><path d="M790,16 C790,26 860,26 860,26 C860,26 930,26 930,16 " fill="none" style="stroke:#181818;stroke-width:1.0;"/><text fill="#000000" font-family="sans-serif" font-size="14" font-weight="bold" lengthAdjust="spacing" textLength="124.7012" x="797.6494" y="40.9951">Demo Database</text></g><g id="elem_Object1"><rect fill="#F1F1F1" height="36.2969" style="stroke:#181818;stroke-width:0.5;" width="68.5029" x="64.75" y="56"/><text fill="#000000" font-family="sans-serif" font-size="14" lengthAdjust="spacing" textLength="54.5029" x="71.75" y="70.9951">Object1</text><line style="stroke:#181818;stroke-width:0.5;" x1="65.75" x2="132.2529" y1="76.2969" y2="76.2969"/></g><g id="elem_Object2"><rect fill="#F1F1F1" height="36.2969" style="stroke:#181818;stroke-width:0.5;" width="68.5029" x="244.75" y="56"/><text fill="#000000" font-family="sans-serif" font-size="14" lengthAdjust="spacing" textLength="54.5029" x="251.75" y="70.9951">Object2</text><line style="stroke:#181818;stroke-width:0.5;" x1="245.75" x2="312.2529" y1="76.2969" y2="76.2969"/></g><g id="elem_Object3"><rect fill="#F1F1F1" height="36.2969" style="stroke:#181818;stroke-width:0.5;" width="68.5029" x="399.75" y="56"/><text fill="#000000" font-family="sans-serif" font-size="14" lengthAdjust="spacing" textLength="54.5029" x="406.75" y="70.9951">Object3</text><line style="stroke:#181818;stroke-width:0.5;" x1="400.75" x2="467.2529" y1="76.2969" y2="76.2969"/></g><g id="elem_Object4"><rect fill="#F1F1F1" height="36.2969" style="stroke:#181818;stroke-width:0.5;" width="68.5029" x="539.75" y="56"/><text fill="#000000" font-family="sans-serif" font-size="14" lengthAdjust="spacing" textLength="54.5029" x="546.75" y="70.9951">Object4</text><line style="stroke:#181818;stroke-width:0.5;" x1="540.75" x2="607.2529" y1="76.2969" y2="76.2969"/></g><g id="elem_Object5"><rect fill="#F1F1F1" height="36.2969" style="stroke:#181818;stroke-width:0.5;" width="68.5029" x="676.75" y="56"/><text fill="#000000" font-family="sans-serif" font-size="14" lengthAdjust="spacing" textLength="54.5029" x="683.75" y="70.9951">Object5</text><line style="stroke:#181818;stroke-width:0.5;" x1="677.75" x2="744.2529" y1="76.2969" y2="76.2969"/></g><g id="elem_Object6"><rect fill="#F1F1F1" height="36.2969" style="stroke:#181818;stroke-width:0.5;" width="68.5029" x="825.75" y="56"/><text fill="#000000" font-family="sans-serif" font-size="14" lengthAdjust="spacing" textLength="54.5029" x="832.75" y="70.9951">Object6</text><line style="stroke:#181818;stroke-width:0.5;" x1="826.75" x2="893.2529" y1="76.2969" y2="76.2969"/></g><!--SRC=[AqXCpavCJrLGSadDpLVmoqz9LLAmiG7HTdOArLmA2lb9MQd99Gh-OCgGgvQh04L7450qCIyz1wmDpi6crmX3hrj-Jafg4KWZX8LDbp6chgB4NB1jO0OsFIOOUfnpyajJG7h036nwJ37qk2IM92Ob5eEjWh6nwJJZgWK0]--></g></svg>