<svg xmlns="http://www.w3.org/2000/svg" xmlns:xlink="http://www.w3.org/1999/xlink" contentStyleType="text/css" height="114px" preserveAspectRatio="none" style="width:187px;height:114px;background:#FFFFFF;" version="1.1" viewBox="0 0 187 114" width="187px" zoomAndPan="magnify"><defs/><g><line style="stroke:#333333;stroke-width:0.5;" x1="10" x2="10" y1="10" y2="85.2656"/><line style="stroke:#333333;stroke-width:0.5;" x1="170" x2="170" y1="10" y2="85.2656"/><line style="stroke:#333333;stroke-width:0.5;stroke-dasharray:3.0,5.0;" x1="15" x2="15" y1="10" y2="85.2656"/><line style="stroke:#333333;stroke-width:0.5;stroke-dasharray:3.0,5.0;" x1="65" x2="65" y1="10" y2="85.2656"/><line style="stroke:#333333;stroke-width:0.5;stroke-dasharray:3.0,5.0;" x1="115" x2="115" y1="10" y2="85.2656"/><line style="stroke:#333333;stroke-width:0.5;stroke-dasharray:3.0,5.0;" x1="165" x2="165" y1="10" y2="85.2656"/><line style="stroke:#333333;stroke-width:0.5;" x1="10" x2="170" y1="10" y2="10"/><text fill="#333333" font-family="sans-serif" font-size="14" font-weight="bold" lengthAdjust="spacing" textLength="95.4229" x="15" y="22.9951">My Timeline</text><line style="stroke:#333333;stroke-width:0.5;" x1="10" x2="111.4229" y1="27.2969" y2="27.2969"/><line style="stroke:#333333;stroke-width:0.5;" x1="111.4229" x2="121.4229" y1="27.2969" y2="10"/><polygon fill="#E2E2F0" points="27,51.2656,53,51.2656,65,63.2656,53,75.2656,27,75.2656,15,63.2656" style="stroke:#006400;stroke-width:1.5;"/><polygon fill="#E2E2F0" points="77,51.2656,103,51.2656,115,63.2656,103,75.2656,77,75.2656,65,63.2656" style="stroke:#006400;stroke-width:1.5;"/><polygon fill="#E2E2F0" points="127,51.2656,165,51.2656,165,75.2656,127,75.2656,115,63.2656" style="stroke:#E2E2F0;stroke-width:1.5;"/><path d="M165,51.2656 L127,51.2656 L115,63.2656 L127,75.2656 L165,75.2656 " fill="#E2E2F0" style="stroke:#006400;stroke-width:1.5;"/><text fill="#333333" font-family="sans-serif" font-size="12" font-weight="bold" lengthAdjust="spacing" textLength="38.6309" x="20.6846" y="67.4199">Alpha</text><text fill="#333333" font-family="sans-serif" font-size="12" font-weight="bold" lengthAdjust="spacing" textLength="39.2285" x="70.3857" y="67.4199">Bravo</text><text fill="#333333" font-family="sans-serif" font-size="12" font-weight="bold" lengthAdjust="spacing" textLength="47.7305" x="127" y="67.4199">Charlie</text><line style="stroke:#8B0000;stroke-width:1.5;" x1="41" x2="89" y1="41.7813" y2="41.7813"/><polygon fill="#8B0000" points="49,45.7813,49,37.7813,41,41.7813" style="stroke:#8B0000;stroke-width:1.0;"/><polygon fill="#8B0000" points="81,45.7813,81,37.7813,89,41.7813" style="stroke:#8B0000;stroke-width:1.0;"/><text fill="#8B0000" font-family="sans-serif" font-size="12" lengthAdjust="spacing" textLength="49.6758" x="40.1621" y="33.9512">My Note</text><line style="stroke:#333333;stroke-width:2.0;" x1="15" x2="15" y1="85.2656" y2="90.2656"/><line style="stroke:#333333;stroke-width:2.0;" x1="65" x2="65" y1="85.2656" y2="90.2656"/><line style="stroke:#333333;stroke-width:2.0;" x1="115" x2="115" y1="85.2656" y2="90.2656"/><line style="stroke:#333333;stroke-width:2.0;" x1="165" x2="165" y1="85.2656" y2="90.2656"/><line style="stroke:#333333;stroke-width:2.0;" x1="15" x2="165" y1="85.2656" y2="85.2656"/><text fill="#333333" font-family="sans-serif" font-size="11" lengthAdjust="spacing" textLength="6.9985" x="11.5007" y="101.4761">0</text><text fill="#333333" font-family="sans-serif" font-size="11" lengthAdjust="spacing" textLength="20.9956" x="54.5022" y="101.4761">100</text><text fill="#333333" font-family="sans-serif" font-size="11" lengthAdjust="spacing" textLength="20.9956" x="104.5022" y="101.4761">200</text><!--SRC=[IyxFIyuiJbLGygrK2CdCJSt9p4jLKaWiLWZXSWZXCb38B5Pmp2d8IEJIDZG0yvoA4ilouJpdZCIYdCnKBWTJ0mKRNJi51x24bGBGDB_yabG0]--></g></svg>