<svg xmlns="http://www.w3.org/2000/svg" xmlns:xlink="http://www.w3.org/1999/xlink" contentStyleType="text/css" height="182px" preserveAspectRatio="none" style="width:380px;height:182px;background:#FFFFFF;" version="1.1" viewBox="0 0 380 182" width="380px" zoomAndPan="magnify"><defs/><g><!--entity Component--><g id="elem_Component"><rect fill="#F1F1F1" height="46.2969" rx="2.5" ry="2.5" style="stroke:#181818;stroke-width:0.5;" width="121.2793" x="7" y="7"/><rect fill="#F1F1F1" height="10" style="stroke:#181818;stroke-width:0.5;" width="15" x="108.2793" y="12"/><rect fill="#F1F1F1" height="2" style="stroke:#181818;stroke-width:0.5;" width="4" x="106.2793" y="14"/><rect fill="#F1F1F1" height="2" style="stroke:#181818;stroke-width:0.5;" width="4" x="106.2793" y="18"/><text fill="#000000" font-family="sans-serif" font-size="14" lengthAdjust="spacing" textLength="81.2793" x="22" y="39.9951">Component</text></g><!--entity Interface--><g id="elem_Interface"><ellipse cx="202.64" cy="30.15" fill="#F1F1F1" rx="8" ry="8" style="stroke:#181818;stroke-width:0.5;"/><text fill="#000000" font-family="sans-serif" font-size="14" lengthAdjust="spacing" textLength="62.6787" x="171.3006" y="60.1451">Interface</text></g><!--entity Database--><g id="elem_Database"><path d="M276.24,17.5 C276.24,7.5 319.6404,7.5 319.6404,7.5 C319.6404,7.5 363.0408,7.5 363.0408,17.5 L363.0408,42.7969 C363.0408,52.7969 319.6404,52.7969 319.6404,52.7969 C319.6404,52.7969 276.24,52.7969 276.24,42.7969 L276.24,17.5 " fill="#F1F1F1" style="stroke:#181818;stroke-width:0.5;"/><path d="M276.24,17.5 C276.24,27.5 319.6404,27.5 319.6404,27.5 C319.6404,27.5 363.0408,27.5 363.0408,17.5 " fill="none" style="stroke:#181818;stroke-width:0.5;"/><text fill="#000000" font-family="sans-serif" font-size="14" lengthAdjust="spacing" textLength="66.8008" x="286.24" y="44.4951">Database</text></g><!--entity Cloud--><g id="elem_Cloud"><path d="M42.1079,127.2072 C46.3894,120.4579 51.787,121.0439 56.0929,127.1806 C58.8447,121.7967 63.5845,119.493 67.9958,125.4368 C73.1596,118.5786 77.3261,119.7943 81.6255,126.3172 C86.4753,120.5089 92.5239,121.8779 94.9604,128.8377 C103.978,131.6882 104.304,138.1177 98.7195,144.4778 C104.3506,149.4942 102.5668,155.2161 95.8086,157.4532 C92.9552,164.6916 88.6599,165.573 83.0153,160.3095 C79.1171,167.2313 74.7876,169.9844 68.4059,162.8999 C63.5044,168.3412 58.4541,168.0483 55.7109,160.7494 C50.3196,167.1474 43.9642,165.9591 41.91,157.6236 C33.754,155.0062 33.3768,148.2654 39.8941,143.5467 C32.8498,137.2961 34.2329,131.4364 42.1079,127.2072 " fill="#F1F1F1" style="stroke:#181818;stroke-width:0.5;"/><text fill="#000000" font-family="sans-serif" font-size="14" lengthAdjust="spacing" textLength="39.9902" x="47.64" y="147.1451">Cloud</text></g><!--entity Node--><g id="elem_Node"><polygon fill="#F1F1F1" points="137.37,129.15,147.37,119.15,213.9081,119.15,213.9081,155.4469,203.9081,165.4469,137.37,165.4469,137.37,129.15" style="stroke:#181818;stroke-width:0.5;"/><line style="stroke:#181818;stroke-width:0.5;" x1="203.9081" x2="213.9081" y1="129.15" y2="119.15"/><line style="stroke:#181818;stroke-width:0.5;" x1="137.37" x2="203.9081" y1="129.15" y2="129.15"/><line style="stroke:#181818;stroke-width:0.5;" x1="203.9081" x2="203.9081" y1="129.15" y2="165.4469"/><text fill="#000000" font-family="sans-serif" font-size="14" lengthAdjust="spacing" textLength="36.5381" x="152.37" y="152.1451">Node</text></g><!--entity Package--><g id="elem_Package"><path d="M251,122.65 L330.2813,122.65 A3.75,3.75 0 0 1 332.7813,125.15 L339.7813,144.9469 L354.2813,144.9469 A2.5,2.5 0 0 1 356.7813,147.4469 L356.7813,159.4469 A2.5,2.5 0 0 1 354.2813,161.9469 L251,161.9469 A2.5,2.5 0 0 1 248.5,159.4469 L248.5,125.15 A2.5,2.5 0 0 1 251,122.65 " fill="#F1F1F1" style="stroke:#181818;stroke-width:0.5;"/><line style="stroke:#181818;stroke-width:0.5;" x1="248.5" x2="339.7813" y1="144.9469" y2="144.9469"/><text fill="#000000" font-family="sans-serif" font-size="14" font-weight="bold" lengthAdjust="spacing" textLength="66.2813" x="258.5" y="138.6451">Package</text></g><!--SRC=[IyxFBSZFIyqhKL1oXZ6Lk3BpIbABqXAJKnMKF65C9QwKn9B4fCHYeA0BbAN4bPoJNve2r0kYbBZoybE0idv0Kech834vEp4To0s0C9G0]--></g></svg>