<svg xmlns="http://www.w3.org/2000/svg" xmlns:xlink="http://www.w3.org/1999/xlink" contentStyleType="text/css" height="527px" preserveAspectRatio="none" style="width:686px;height:527px;background:#FFFFFF;" version="1.1" viewBox="0 0 686 527" width="686px" zoomAndPan="magnify"><defs/><g><!--entity actor--><g id="elem_actor"><ellipse cx="53.4735" cy="14" fill="#F1F1F1" rx="8" ry="8" style="stroke:#181818;stroke-width:0.5;"/><path d="M53.4735,22 L53.4735,49 M40.4735,30 L66.4735,30 M53.4735,49 L40.4735,64 M53.4735,49 L66.4735,64 " fill="none" style="stroke:#181818;stroke-width:0.5;"/><text fill="#000000" font-family="sans-serif" font-size="14" lengthAdjust="spacing" textLength="36.0869" x="35.43" y="78.4951">actor</text></g><!--entity agent--><g id="elem_agent"><rect fill="#F1F1F1" height="36.2969" rx="2.5" ry="2.5" style="stroke:#181818;stroke-width:0.5;" width="60.4414" x="106.25" y="25.5"/><text fill="#000000" font-family="sans-serif" font-size="14" lengthAdjust="spacing" textLength="40.4414" x="116.25" y="48.4951">agent</text></g><!--entity artifact--><g id="elem_artifact"><rect fill="#F1F1F1" height="39.2969" rx="2.5" ry="2.5" style="stroke:#181818;stroke-width:0.5;" width="80.4082" x="201.27" y="24"/><polygon fill="#F1F1F1" points="264.6782,29,264.6782,43,276.6782,43,276.6782,35,270.6782,29,264.6782,29" style="stroke:#181818;stroke-width:0.5;"/><line style="stroke:#181818;stroke-width:0.5;" x1="270.6782" x2="270.6782" y1="29" y2="35"/><line style="stroke:#181818;stroke-width:0.5;" x1="276.6782" x2="270.6782" y1="35" y2="35"/><text fill="#000000" font-family="sans-serif" font-size="14" lengthAdjust="spacing" textLength="50.4082" x="211.27" y="49.9951">artifact</text></g><!--entity boundary--><g id="elem_boundary"><path d="M329.9725,23.5 L329.9725,47.5 M329.9725,35.5 L346.9725,35.5 " fill="none" style="stroke:#181818;stroke-width:0.5;"/><ellipse cx="358.9725" cy="35.5" fill="#F1F1F1" rx="12" ry="12" style="stroke:#181818;stroke-width:0.5;"/><text fill="#000000" font-family="sans-serif" font-size="14" lengthAdjust="spacing" textLength="66.7051" x="317.12" y="64.4951">boundary</text></g><!--entity card--><g id="elem_card"><rect fill="#F1F1F1" height="22.2969" rx="2.5" ry="2.5" style="stroke:#181818;stroke-width:0.5;" width="50.9189" x="419.01" y="32.5"/><text fill="#000000" font-family="sans-serif" font-size="14" lengthAdjust="spacing" textLength="30.9189" x="429.01" y="48.4951">card</text></g><!--entity circle--><g id="elem_circle"><ellipse cx="531.47" cy="43.65" fill="#F1F1F1" rx="8" ry="8" style="stroke:#181818;stroke-width:0.5;"/><text fill="#000000" font-family="sans-serif" font-size="14" lengthAdjust="spacing" textLength="37.543" x="512.6985" y="73.6451">circle</text></g><!--entity cloud--><g id="elem_cloud"><path d="M27.5239,151.1665 C31.1823,143.6583 36.9196,143.7873 41.4854,150.2604 C44.7903,143.4964 50.4184,142.4966 54.5875,149.4339 C58.5333,143.1578 63.596,144.8386 66.739,150.2673 C70.6359,143.689 77.3084,145.2025 80.2901,151.2496 C89.207,154.4524 91.5886,161.1416 84.0868,168.054 C88.6708,174.6587 88.5556,179.1145 79.7471,181.347 C78.3487,187.5414 73.0322,189.8415 68.4657,184.4253 C64.3834,191.9761 59.5799,192.4381 53.636,186.4669 C48.9848,191.4348 43.7316,189.6869 41.2605,183.9472 C36.769,189.6698 31.6148,189.6331 28.4574,182.6074 C19.2314,181.7605 16.2311,175.5286 21.4625,167.8357 C15.3882,159.3034 17.3878,153.8042 27.5239,151.1665 " fill="#F1F1F1" style="stroke:#181818;stroke-width:0.5;"/><text fill="#000000" font-family="sans-serif" font-size="14" lengthAdjust="spacing" textLength="37.9121" x="34.51" y="170.7951">cloud</text></g><!--entity collections--><g id="elem_collections"><rect fill="#F1F1F1" height="32.2969" rx="2.5" ry="2.5" style="stroke:#181818;stroke-width:0.5;" width="90.4639" x="126.24" y="151.8"/><rect fill="#F1F1F1" height="32.2969" rx="2.5" ry="2.5" style="stroke:#181818;stroke-width:0.5;" width="90.4639" x="122.24" y="147.8"/><text fill="#000000" font-family="sans-serif" font-size="14" lengthAdjust="spacing" textLength="74.4639" x="130.24" y="168.7951">collections</text></g><!--entity component--><g id="elem_component"><rect fill="#F1F1F1" height="46.2969" rx="2.5" ry="2.5" style="stroke:#181818;stroke-width:0.5;" width="119.2012" x="251.87" y="142.8"/><rect fill="#F1F1F1" height="10" style="stroke:#181818;stroke-width:0.5;" width="15" x="351.0712" y="147.8"/><rect fill="#F1F1F1" height="2" style="stroke:#181818;stroke-width:0.5;" width="4" x="349.0712" y="149.8"/><rect fill="#F1F1F1" height="2" style="stroke:#181818;stroke-width:0.5;" width="4" x="349.0712" y="153.8"/><text fill="#000000" font-family="sans-serif" font-size="14" lengthAdjust="spacing" textLength="79.2012" x="266.87" y="175.7951">component</text></g><!--entity control--><g id="elem_control"><ellipse cx="430.468" cy="157.8" fill="#F1F1F1" rx="12" ry="12" style="stroke:#181818;stroke-width:0.5;"/><polygon fill="#181818" points="426.468,145.8,432.468,140.8,430.468,145.8,432.468,150.8,426.468,145.8" style="stroke:#181818;stroke-width:1.0;"/><text fill="#000000" font-family="sans-serif" font-size="14" lengthAdjust="spacing" textLength="48.8359" x="406.05" y="186.7951">control</text></g><!--entity database--><g id="elem_database"><path d="M490.02,153.3 C490.02,143.3 532.4736,143.3 532.4736,143.3 C532.4736,143.3 574.9272,143.3 574.9272,153.3 L574.9272,178.5969 C574.9272,188.5969 532.4736,188.5969 532.4736,188.5969 C532.4736,188.5969 490.02,188.5969 490.02,178.5969 L490.02,153.3 " fill="#F1F1F1" style="stroke:#181818;stroke-width:0.5;"/><path d="M490.02,153.3 C490.02,163.3 532.4736,163.3 532.4736,163.3 C532.4736,163.3 574.9272,163.3 574.9272,153.3 " fill="none" style="stroke:#181818;stroke-width:0.5;"/><text fill="#000000" font-family="sans-serif" font-size="14" lengthAdjust="spacing" textLength="64.9072" x="500.02" y="180.2951">database</text></g><!--entity entity--><g id="elem_entity"><ellipse cx="630.4698" cy="157.8" fill="#F1F1F1" rx="12" ry="12" style="stroke:#181818;stroke-width:0.5;"/><line style="stroke:#181818;stroke-width:0.5;" x1="618.4698" x2="642.4698" y1="171.8" y2="171.8"/><text fill="#000000" font-family="sans-serif" font-size="14" lengthAdjust="spacing" textLength="40.6396" x="610.15" y="186.7951">entity</text></g><!--entity file--><g id="elem_file"><path d="M32.81,263.44 L32.81,294.7369 A2.5,2.5 0 0 0 35.31,297.2369 L71.6313,297.2369 A2.5,2.5 0 0 0 74.1313,294.7369 L74.1313,270.94 L64.1313,260.94 L35.31,260.94 A2.5,2.5 0 0 0 32.81,263.44 " fill="#F1F1F1" style="stroke:#181818;stroke-width:0.5;"/><path d="M64.1313,260.94 L64.1313,268.44 A2.5,2.5 0 0 0 66.6313,270.94 L74.1313,270.94 " fill="#F1F1F1" style="stroke:#181818;stroke-width:0.5;"/><text fill="#000000" font-family="sans-serif" font-size="14" lengthAdjust="spacing" textLength="21.3213" x="42.81" y="283.9351">file</text></g><!--entity folder--><g id="elem_folder"><path d="M111.65,251.94 L152.65,251.94 A3.75,3.75 0 0 1 155.15,254.44 L162.15,272.94 L177.2896,272.94 A2.5,2.5 0 0 1 179.7896,275.44 L179.7896,303.7369 A2.5,2.5 0 0 1 177.2896,306.2369 L111.65,306.2369 A2.5,2.5 0 0 1 109.15,303.7369 L109.15,254.44 A2.5,2.5 0 0 1 111.65,251.94 " fill="#F1F1F1" style="stroke:#181818;stroke-width:0.5;"/><line style="stroke:#181818;stroke-width:0.5;" x1="109.15" x2="162.15" y1="272.94" y2="272.94"/><text fill="#000000" font-family="sans-serif" font-size="14" lengthAdjust="spacing" textLength="40.6396" x="119.15" y="292.9351">folder</text></g><!--entity frame--><g id="elem_frame"><rect fill="#F1F1F1" height="46.2969" rx="2.5" ry="2.5" style="stroke:#181818;stroke-width:0.5;" width="81.5146" x="214.71" y="255.94"/><path d="M241.8815,255.94 L241.8815,260.94 L234.8815,267.94 L214.71,267.94 " fill="none" style="stroke:#181818;stroke-width:0.5;"/><text fill="#000000" font-family="sans-serif" font-size="14" lengthAdjust="spacing" textLength="41.5146" x="229.71" y="288.9351">frame</text></g><!--entity hexagon--><g id="elem_hexagon"><polygon fill="#F1F1F1" points="452.15,279.09,421.81,265.94,361.13,265.94,330.79,279.09,361.13,292.24,421.81,292.24,452.15,279.09" style="stroke:#181818;stroke-width:0.5;"/><text fill="#000000" font-family="sans-serif" font-size="14" lengthAdjust="spacing" textLength="60.6758" x="361.1279" y="283.9351">hexagon</text></g><!--entity interface--><g id="elem_interface"><ellipse cx="526.47" cy="279.09" fill="#F1F1F1" rx="8" ry="8" style="stroke:#181818;stroke-width:0.5;"/><text fill="#000000" font-family="sans-serif" font-size="14" lengthAdjust="spacing" textLength="62.4395" x="495.2503" y="309.0851">interface</text></g><!--entity label--><g id="elem_label"><text fill="#000000" font-family="sans-serif" font-size="14" lengthAdjust="spacing" textLength="33.8584" x="610.54" y="283.9351">label</text></g><!--entity node--><g id="elem_node"><polygon fill="#F1F1F1" points="16,383.52,26,373.52,90.9385,373.52,90.9385,409.8169,80.9385,419.8169,16,419.8169,16,383.52" style="stroke:#181818;stroke-width:0.5;"/><line style="stroke:#181818;stroke-width:0.5;" x1="80.9385" x2="90.9385" y1="383.52" y2="373.52"/><line style="stroke:#181818;stroke-width:0.5;" x1="16" x2="80.9385" y1="383.52" y2="383.52"/><line style="stroke:#181818;stroke-width:0.5;" x1="80.9385" x2="80.9385" y1="383.52" y2="419.8169"/><text fill="#000000" font-family="sans-serif" font-size="14" lengthAdjust="spacing" textLength="34.9385" x="31" y="406.5151">node</text></g><!--entity package--><g id="elem_package"><path d="M127.95,377.02 L206.992,377.02 A3.75,3.75 0 0 1 209.492,379.52 L216.492,399.3169 L230.992,399.3169 A2.5,2.5 0 0 1 233.492,401.8169 L233.492,413.8169 A2.5,2.5 0 0 1 230.992,416.3169 L127.95,416.3169 A2.5,2.5 0 0 1 125.45,413.8169 L125.45,379.52 A2.5,2.5 0 0 1 127.95,377.02 " fill="#F1F1F1" style="stroke:#181818;stroke-width:0.5;"/><line style="stroke:#181818;stroke-width:0.5;" x1="125.45" x2="216.492" y1="399.3169" y2="399.3169"/><text fill="#000000" font-family="sans-serif" font-size="14" font-weight="bold" lengthAdjust="spacing" textLength="66.042" x="135.45" y="393.0151">package</text></g><!--entity person--><g id="elem_person"><ellipse cx="302.4741" cy="378.5221" fill="#F1F1F1" rx="10.4321" ry="10.4321" style="stroke:#181818;stroke-width:0.5;"/><rect fill="#F1F1F1" height="36.2969" rx="10.4321" ry="10.4321" style="stroke:#181818;stroke-width:0.5;" width="67.9883" x="268.48" y="388.9542"/><text fill="#000000" font-family="sans-serif" font-size="14" lengthAdjust="spacing" textLength="47.9883" x="278.48" y="411.9493">person</text></g><!--entity queue--><g id="elem_queue"><path d="M376.54,383.52 L430.3994,383.52 C435.3994,383.52 435.3994,396.6684 435.3994,396.6684 C435.3994,396.6684 435.3994,409.8169 430.3994,409.8169 L376.54,409.8169 C371.54,409.8169 371.54,396.6684 371.54,396.6684 C371.54,396.6684 371.54,383.52 376.54,383.52 " fill="#F1F1F1" style="stroke:#181818;stroke-width:0.5;"/><path d="M430.3994,383.52 C425.3994,383.52 425.3994,396.6684 425.3994,396.6684 C425.3994,409.8169 430.3994,409.8169 430.3994,409.8169 " fill="none" style="stroke:#181818;stroke-width:0.5;"/><text fill="#000000" font-family="sans-serif" font-size="14" lengthAdjust="spacing" textLength="43.8594" x="376.54" y="401.5151">queue</text></g><!--entity rectangle--><g id="elem_rectangle"><rect fill="#F1F1F1" height="36.2969" rx="2.5" ry="2.5" style="stroke:#181818;stroke-width:0.5;" width="86.3975" x="470.27" y="378.52"/><text fill="#000000" font-family="sans-serif" font-size="14" lengthAdjust="spacing" textLength="66.3975" x="480.27" y="401.5151">rectangle</text></g><!--entity stack--><g id="elem_stack"><rect fill="#F1F1F1" height="36.2969" rx="2.5" ry="2.5" style="stroke:none;stroke-width:0.5;" width="57.167" x="606.89" y="378.52"/><path d="M591.89,378.52 L604.39,378.52 A2.5,2.5 0 0 1 606.89,381.02 L606.89,412.3169 A2.5,2.5 0 0 0 609.39,414.8169 L661.557,414.8169 A2.5,2.5 0 0 0 664.057,412.3169 L664.057,381.02 A2.5,2.5 0 0 1 666.557,378.52 L679.057,378.52 " fill="none" style="stroke:#181818;stroke-width:0.5;"/><text fill="#000000" font-family="sans-serif" font-size="14" lengthAdjust="spacing" textLength="37.167" x="616.89" y="401.5151">stack</text></g><!--entity storage--><g id="elem_storage"><rect fill="#F1F1F1" height="36.2969" rx="35" ry="35" style="stroke:#181818;stroke-width:0.5;" width="73.1836" x="16.88" y="485.25"/><text fill="#000000" font-family="sans-serif" font-size="14" lengthAdjust="spacing" textLength="53.1836" x="26.88" y="508.2451">storage</text></g><g id="elem_usecase"><ellipse cx="177.4738" cy="503.4048" fill="#F1F1F1" rx="52.5738" ry="14.7148" style="stroke:#181818;stroke-width:0.5;"/><text fill="#000000" font-family="sans-serif" font-size="14" lengthAdjust="spacing" textLength="56.9639" x="145.9918" y="507.1524">usecase</text></g><!--SRC=[JP113iCW30Jl-mf_pG4dHQKuDI2rlwz9IDJBpCg0mN1eQiI3u4rAeuDWQsdrCbq1Y_OIsRvq1GIsI0C8oK8MEeMGjVl288BcBA4bBPN-ijTVkvPntvsyLffffcb4Rhnm5Re2V5TgNpg5DVcT0rWrHp4wXTNuvGk3UCY7DoqqZLIQcCyZT2TaNYJJGHIDGWFOEJpzBsWQkrZrHgVmxjA53i9yA2wRF-PEgCsFqK7FQgFJD7gLCCQQ_W40]--></g></svg>