<svg xmlns="http://www.w3.org/2000/svg" xmlns:xlink="http://www.w3.org/1999/xlink" contentStyleType="text/css" height="386px" preserveAspectRatio="none" style="width:626px;height:386px;background:#FFFFFF;" version="1.1" viewBox="0 0 626 386" width="626px" zoomAndPan="magnify"><defs/><g><line style="stroke:#181818;stroke-width:0.5;stroke-dasharray:5.0,5.0;" x1="49" x2="49" y1="81.2969" y2="305.2266"/><line style="stroke:#181818;stroke-width:0.5;stroke-dasharray:5.0,5.0;" x1="126.7793" x2="126.7793" y1="81.2969" y2="305.2266"/><line style="stroke:#181818;stroke-width:0.5;stroke-dasharray:5.0,5.0;" x1="194.8643" x2="194.8643" y1="81.2969" y2="305.2266"/><line style="stroke:#181818;stroke-width:0.5;stroke-dasharray:5.0,5.0;" x1="270.2871" x2="270.2871" y1="81.2969" y2="305.2266"/><line style="stroke:#181818;stroke-width:0.5;stroke-dasharray:5.0,5.0;" x1="332.2012" x2="332.2012" y1="81.2969" y2="305.2266"/><line style="stroke:#181818;stroke-width:0.5;stroke-dasharray:5.0,5.0;" x1="402.0732" x2="402.0732" y1="81.2969" y2="305.2266"/><line style="stroke:#181818;stroke-width:0.5;stroke-dasharray:5.0,5.0;" x1="495.874" x2="495.874" y1="81.2969" y2="305.2266"/><line style="stroke:#181818;stroke-width:0.5;stroke-dasharray:5.0,5.0;" x1="585.416" x2="585.416" y1="81.2969" y2="305.2266"/><rect fill="#E3E3E3" height="30.2969" rx="2.5" ry="2.5" style="stroke:#181818;stroke-width:0.5;" width="89.5713" x="5" y="50"/><text fill="#000000" font-family="sans-serif" font-size="14" lengthAdjust="spacing" textLength="75.5713" x="12" y="69.9951">Participant</text><rect fill="#E3E3E3" height="30.2969" rx="2.5" ry="2.5" style="stroke:#181818;stroke-width:0.5;" width="89.5713" x="5" y="304.2266"/><text fill="#000000" font-family="sans-serif" font-size="14" lengthAdjust="spacing" textLength="75.5713" x="12" y="324.2217">Participant</text><text fill="#000000" font-family="sans-serif" font-size="14" lengthAdjust="spacing" textLength="37.085" x="105.7793" y="77.9951">Actor</text><ellipse cx="127.3218" cy="13.5" fill="#E3E3E3" rx="8" ry="8" style="stroke:#181818;stroke-width:0.5;"/><path d="M127.3218,21.5 L127.3218,48.5 M114.3218,29.5 L140.3218,29.5 M127.3218,48.5 L114.3218,63.5 M127.3218,48.5 L140.3218,63.5 " fill="none" style="stroke:#181818;stroke-width:0.5;"/><text fill="#000000" font-family="sans-serif" font-size="14" lengthAdjust="spacing" textLength="37.085" x="105.7793" y="317.2217">Actor</text><ellipse cx="127.3218" cy="329.0234" fill="#E3E3E3" rx="8" ry="8" style="stroke:#181818;stroke-width:0.5;"/><path d="M127.3218,337.0234 L127.3218,364.0234 M114.3218,345.0234 L140.3218,345.0234 M127.3218,364.0234 L114.3218,379.0234 M127.3218,364.0234 L140.3218,379.0234 " fill="none" style="stroke:#181818;stroke-width:0.5;"/><text fill="#000000" font-family="sans-serif" font-size="14" lengthAdjust="spacing" textLength="67.4229" x="158.8643" y="77.9951">Boundary</text><path d="M175.0757,37 L175.0757,61 M175.0757,49 L192.0757,49 " fill="none" style="stroke:#181818;stroke-width:0.5;"/><ellipse cx="204.0757" cy="49" fill="#E3E3E3" rx="12" ry="12" style="stroke:#181818;stroke-width:0.5;"/><text fill="#000000" font-family="sans-serif" font-size="14" lengthAdjust="spacing" textLength="67.4229" x="158.8643" y="317.2217">Boundary</text><path d="M175.0757,324.5234 L175.0757,348.5234 M175.0757,336.5234 L192.0757,336.5234 " fill="none" style="stroke:#181818;stroke-width:0.5;"/><ellipse cx="204.0757" cy="336.5234" fill="#E3E3E3" rx="12" ry="12" style="stroke:#181818;stroke-width:0.5;"/><text fill="#000000" font-family="sans-serif" font-size="14" lengthAdjust="spacing" textLength="50.9141" x="242.2871" y="77.9951">Control</text><ellipse cx="270.7441" cy="49" fill="#E3E3E3" rx="12" ry="12" style="stroke:#181818;stroke-width:0.5;"/><polygon fill="#181818" points="266.7441,37,272.7441,32,270.7441,37,272.7441,42,266.7441,37" style="stroke:#181818;stroke-width:1.0;"/><text fill="#000000" font-family="sans-serif" font-size="14" lengthAdjust="spacing" textLength="50.9141" x="242.2871" y="317.2217">Control</text><ellipse cx="270.7441" cy="336.5234" fill="#E3E3E3" rx="12" ry="12" style="stroke:#181818;stroke-width:0.5;"/><polygon fill="#181818" points="266.7441,324.5234,272.7441,319.5234,270.7441,324.5234,272.7441,329.5234,266.7441,324.5234" style="stroke:#181818;stroke-width:1.0;"/><text fill="#000000" font-family="sans-serif" font-size="14" lengthAdjust="spacing" textLength="40.8721" x="309.2012" y="77.9951">Entity</text><ellipse cx="332.6372" cy="49" fill="#E3E3E3" rx="12" ry="12" style="stroke:#181818;stroke-width:0.5;"/><line style="stroke:#181818;stroke-width:0.5;" x1="320.6372" x2="344.6372" y1="63" y2="63"/><text fill="#000000" font-family="sans-serif" font-size="14" lengthAdjust="spacing" textLength="40.8721" x="309.2012" y="317.2217">Entity</text><ellipse cx="332.6372" cy="336.5234" fill="#E3E3E3" rx="12" ry="12" style="stroke:#181818;stroke-width:0.5;"/><line style="stroke:#181818;stroke-width:0.5;" x1="320.6372" x2="344.6372" y1="350.5234" y2="350.5234"/><text fill="#000000" font-family="sans-serif" font-size="14" lengthAdjust="spacing" textLength="66.8008" x="366.0732" y="77.9951">Database</text><path d="M384.4736,29 C384.4736,19 402.4736,19 402.4736,19 C402.4736,19 420.4736,19 420.4736,29 L420.4736,55 C420.4736,65 402.4736,65 402.4736,65 C402.4736,65 384.4736,65 384.4736,55 L384.4736,29 " fill="#E3E3E3" style="stroke:#181818;stroke-width:1.5;"/><path d="M384.4736,29 C384.4736,39 402.4736,39 402.4736,39 C402.4736,39 420.4736,39 420.4736,29 " fill="none" style="stroke:#181818;stroke-width:1.5;"/><text fill="#000000" font-family="sans-serif" font-size="14" lengthAdjust="spacing" textLength="66.8008" x="366.0732" y="317.2217">Database</text><path d="M384.4736,330.5234 C384.4736,320.5234 402.4736,320.5234 402.4736,320.5234 C402.4736,320.5234 420.4736,320.5234 420.4736,330.5234 L420.4736,356.5234 C420.4736,366.5234 402.4736,366.5234 402.4736,366.5234 C402.4736,366.5234 384.4736,366.5234 384.4736,356.5234 L384.4736,330.5234 " fill="#E3E3E3" style="stroke:#181818;stroke-width:1.5;"/><path d="M384.4736,330.5234 C384.4736,340.5234 402.4736,340.5234 402.4736,340.5234 C402.4736,340.5234 420.4736,340.5234 420.4736,330.5234 " fill="none" style="stroke:#181818;stroke-width:1.5;"/><rect fill="#E3E3E3" height="30.2969" style="stroke:#181818;stroke-width:0.5;" width="90.542" x="452.874" y="46"/><rect fill="#E3E3E3" height="30.2969" style="stroke:#181818;stroke-width:0.5;" width="90.542" x="448.874" y="50"/><text fill="#000000" font-family="sans-serif" font-size="14" lengthAdjust="spacing" textLength="76.542" x="455.874" y="69.9951">Collections</text><rect fill="#E3E3E3" height="30.2969" style="stroke:#181818;stroke-width:0.5;" width="90.542" x="452.874" y="304.2266"/><rect fill="#E3E3E3" height="30.2969" style="stroke:#181818;stroke-width:0.5;" width="90.542" x="448.874" y="308.2266"/><text fill="#000000" font-family="sans-serif" font-size="14" lengthAdjust="spacing" textLength="76.542" x="455.874" y="328.2217">Collections</text><path d="M558.416,55 L614.4082,55 C619.4082,55 619.4082,68.1484 619.4082,68.1484 C619.4082,68.1484 619.4082,81.2969 614.4082,81.2969 L558.416,81.2969 C553.416,81.2969 553.416,68.1484 553.416,68.1484 C553.416,68.1484 553.416,55 558.416,55 " fill="#E3E3E3" style="stroke:#181818;stroke-width:0.5;"/><path d="M614.4082,55 C609.4082,55 609.4082,68.1484 609.4082,68.1484 C609.4082,81.2969 614.4082,81.2969 614.4082,81.2969 " fill="none" style="stroke:#181818;stroke-width:0.5;"/><text fill="#000000" font-family="sans-serif" font-size="14" lengthAdjust="spacing" textLength="45.9922" x="558.416" y="72.9951">Queue</text><path d="M558.416,304.2266 L614.4082,304.2266 C619.4082,304.2266 619.4082,317.375 619.4082,317.375 C619.4082,317.375 619.4082,330.5234 614.4082,330.5234 L558.416,330.5234 C553.416,330.5234 553.416,317.375 553.416,317.375 C553.416,317.375 553.416,304.2266 558.416,304.2266 " fill="#E3E3E3" style="stroke:#181818;stroke-width:0.5;"/><path d="M614.4082,304.2266 C609.4082,304.2266 609.4082,317.375 609.4082,317.375 C609.4082,330.5234 614.4082,330.5234 614.4082,330.5234 " fill="none" style="stroke:#181818;stroke-width:0.5;"/><text fill="#000000" font-family="sans-serif" font-size="14" lengthAdjust="spacing" textLength="45.9922" x="558.416" y="322.2217">Queue</text><polygon fill="#181818" points="115.3218,108.4297,125.3218,112.4297,115.3218,116.4297,119.3218,112.4297" style="stroke:#181818;stroke-width:1.0;"/><line style="stroke:#181818;stroke-width:1.0;" x1="49.7856" x2="121.3218" y1="112.4297" y2="112.4297"/><text fill="#000000" font-family="sans-serif" font-size="13" lengthAdjust="spacing" textLength="53.5361" x="56.7856" y="107.3638">To actor</text><polygon fill="#181818" points="183.5757,137.5625,193.5757,141.5625,183.5757,145.5625,187.5757,141.5625" style="stroke:#181818;stroke-width:1.0;"/><line style="stroke:#181818;stroke-width:1.0;" x1="49.7856" x2="189.5757" y1="141.5625" y2="141.5625"/><text fill="#000000" font-family="sans-serif" font-size="13" lengthAdjust="spacing" textLength="81.9673" x="56.7856" y="136.4966">To boundary</text><polygon fill="#181818" points="258.7441,166.6953,268.7441,170.6953,258.7441,174.6953,262.7441,170.6953" style="stroke:#181818;stroke-width:1.0;"/><line style="stroke:#181818;stroke-width:1.0;" x1="49.7856" x2="264.7441" y1="170.6953" y2="170.6953"/><text fill="#000000" font-family="sans-serif" font-size="13" lengthAdjust="spacing" textLength="65.3745" x="56.7856" y="165.6294">To control</text><polygon fill="#181818" points="320.6372,195.8281,330.6372,199.8281,320.6372,203.8281,324.6372,199.8281" style="stroke:#181818;stroke-width:1.0;"/><line style="stroke:#181818;stroke-width:1.0;" x1="49.7856" x2="326.6372" y1="199.8281" y2="199.8281"/><text fill="#000000" font-family="sans-serif" font-size="13" lengthAdjust="spacing" textLength="57.7637" x="56.7856" y="194.7622">To entity</text><polygon fill="#181818" points="390.4736,224.9609,400.4736,228.9609,390.4736,232.9609,394.4736,228.9609" style="stroke:#181818;stroke-width:1.0;"/><line style="stroke:#181818;stroke-width:1.0;" x1="49.7856" x2="396.4736" y1="228.9609" y2="228.9609"/><text fill="#000000" font-family="sans-serif" font-size="13" lengthAdjust="spacing" textLength="80.2979" x="56.7856" y="223.895">To database</text><polygon fill="#181818" points="484.145,254.0938,494.145,258.0938,484.145,262.0938,488.145,258.0938" style="stroke:#181818;stroke-width:1.0;"/><line style="stroke:#181818;stroke-width:1.0;" x1="49.7856" x2="490.145" y1="258.0938" y2="258.0938"/><text fill="#000000" font-family="sans-serif" font-size="13" lengthAdjust="spacing" textLength="89.1719" x="56.7856" y="253.0278">To collections</text><polygon fill="#181818" points="574.4121,283.2266,584.4121,287.2266,574.4121,291.2266,578.4121,287.2266" style="stroke:#181818;stroke-width:1.0;"/><line style="stroke:#181818;stroke-width:1.0;" x1="49.7856" x2="580.4121" y1="287.2266" y2="287.2266"/><text fill="#000000" font-family="sans-serif" font-size="13" lengthAdjust="spacing" textLength="60.7534" x="56.7856" y="282.1606">To queue</text><!--SRC=[JOzD3e8m48NtFSLSm8KWaBWmyNUjYHSOIXCReODbM71xWG6TBfgNzwKl_Rgt3or6RA2XGFOLgN70iNTcRDbRts9WkAkC7To835gc27AEAWlUcfBwK64Sfkwail34M0eSgPxVd5KMdXeNsFCWcrULXUzCXOmbTcxgBYeBpyRzkdQMFOLktFzduRdvzAvtovyVAWilp7Z1vZ2xm1wU12Ai-aJwLLIHLCYYgC1EWBYfFfD-TL8aNwT-1WeMCvjDlW00]--></g></svg>