<svg xmlns="http://www.w3.org/2000/svg" xmlns:xlink="http://www.w3.org/1999/xlink" contentStyleType="text/css" height="152px" preserveAspectRatio="none" style="width:180px;height:152px;background:#FFFFFF;" version="1.1" viewBox="0 0 180 152" width="180px" zoomAndPan="magnify"><defs/><g><text fill="#000000" font-family="sans-serif" font-size="12" lengthAdjust="spacing" textLength="67.2715" x="6" y="17.1387">Hello world</text><rect fill="#EEEEEE" height="17.9688" rx="5" ry="5" style="stroke:#000000;stroke-width:2.5;" width="52" x="8.5" y="24.4688"/><text fill="#000000" font-family="sans-serif" font-size="12" lengthAdjust="spacing" textLength="40.1953" x="14.4023" y="37.6074">Button</text><text fill="#000000" font-family="sans-serif" font-size="12" lengthAdjust="spacing" textLength="45.4336" x="26" y="58.0762">Radio 1</text><ellipse cx="13" cy="53.9219" fill="none" rx="5" ry="5" style="stroke:#000000;stroke-width:1.5;"/><text fill="#000000" font-family="sans-serif" font-size="12" lengthAdjust="spacing" textLength="45.4336" x="26" y="74.0449">Radio 2</text><ellipse cx="13" cy="69.8906" fill="none" rx="5" ry="5" style="stroke:#000000;stroke-width:1.5;"/><ellipse cx="13" cy="69.8906" fill="#000000" rx="2" ry="2" style="stroke:#000000;stroke-width:1.5;"/><text fill="#000000" font-family="sans-serif" font-size="12" lengthAdjust="spacing" textLength="70.4238" x="26" y="90.0137">Checkbox 1</text><rect fill="none" height="10" style="stroke:#000000;stroke-width:1.5;" width="10" x="8" y="80.8594"/><text fill="#000000" font-family="sans-serif" font-size="12" lengthAdjust="spacing" textLength="70.4238" x="26" y="105.9824">Checkbox 2</text><rect fill="none" height="10" style="stroke:#000000;stroke-width:1.5;" width="10" x="8" y="96.8281"/><polygon fill="#000000" points="9,100.8438,12,103.8438,19,94.8438,12,101.8438" style="stroke:#000000;stroke-width:1.5;"/><text fill="#000000" font-family="sans-serif" font-size="12" lengthAdjust="spacing" textLength="91.0371" x="9" y="121.9512">Enter text here</text><line style="stroke:#000000;stroke-width:1.0;" x1="7" x2="154" y1="124.7813" y2="124.7813"/><line style="stroke:#000000;stroke-width:1.0;" x1="7" x2="7" y1="121.7813" y2="123.7813"/><line style="stroke:#000000;stroke-width:1.0;" x1="154" x2="154" y1="121.7813" y2="123.7813"/><rect fill="#EEEEEE" height="16.9688" style="stroke:#000000;stroke-width:1.0;" width="159" x="6" y="128.7813"/><text fill="#000000" font-family="sans-serif" font-size="12" lengthAdjust="spacing" textLength="98.0391" x="8" y="141.9199">This is a droplist</text><line style="stroke:#000000;stroke-width:1.0;" x1="154" x2="154" y1="128.7813" y2="145.75"/><polygon fill="#000000" points="157,134.7813,163,134.7813,160,140.75" style="stroke:#000000;stroke-width:1.0;"/><!--SRC=[AqxCAU6gvb9Gy4ZDoSbNACyloaa1ygATIajAylDYWKmDJGM5eCIKp7m5Gn0lGXFACm8fYrLGSCv8JSvEogy0IqT7n284G2gKNFDAKeiKIb8hIXGoKejI5O12GE6ua8pCOWKWIbH8ASeloCaiBedZgWK0]--></g></svg>