<svg xmlns="http://www.w3.org/2000/svg" xmlns:xlink="http://www.w3.org/1999/xlink" contentStyleType="text/css" height="251px" preserveAspectRatio="none" style="width:210px;height:251px;background:#FFFFFF;" version="1.1" viewBox="0 0 210 251" width="210px" zoomAndPan="magnify"><defs/><g><line style="stroke:#181818;stroke-width:0.5;stroke-dasharray:5.0,5.0;" x1="31" x2="31" y1="36.2969" y2="215.9609"/><line style="stroke:#181818;stroke-width:0.5;stroke-dasharray:5.0,5.0;" x1="97.5103" x2="97.5103" y1="36.2969" y2="215.9609"/><line style="stroke:#181818;stroke-width:0.5;stroke-dasharray:5.0,5.0;" x1="166.3003" x2="166.3003" y1="36.2969" y2="215.9609"/><rect fill="#E3E3E3" height="30.2969" rx="2.5" ry="2.5" style="stroke:#181818;stroke-width:0.5;" width="53.8057" x="5" y="5"/><text fill="#000000" font-family="sans-serif" font-size="14" lengthAdjust="spacing" textLength="39.8057" x="12" y="24.9951">Alpha</text><rect fill="#E3E3E3" height="30.2969" rx="2.5" ry="2.5" style="stroke:#181818;stroke-width:0.5;" width="53.8057" x="5" y="214.9609"/><text fill="#000000" font-family="sans-serif" font-size="14" lengthAdjust="spacing" textLength="39.8057" x="12" y="234.9561">Alpha</text><rect fill="#E3E3E3" height="30.2969" rx="2.5" ry="2.5" style="stroke:#181818;stroke-width:0.5;" width="54.79" x="70.5103" y="5"/><text fill="#000000" font-family="sans-serif" font-size="14" lengthAdjust="spacing" textLength="40.79" x="77.5103" y="24.9951">Bravo</text><rect fill="#E3E3E3" height="30.2969" rx="2.5" ry="2.5" style="stroke:#181818;stroke-width:0.5;" width="54.79" x="70.5103" y="214.9609"/><text fill="#000000" font-family="sans-serif" font-size="14" lengthAdjust="spacing" textLength="40.79" x="77.5103" y="234.9561">Bravo</text><rect fill="#E3E3E3" height="30.2969" rx="2.5" ry="2.5" style="stroke:#181818;stroke-width:0.5;" width="63.376" x="135.3003" y="5"/><text fill="#000000" font-family="sans-serif" font-size="14" lengthAdjust="spacing" textLength="49.376" x="142.3003" y="24.9951">Charlie</text><rect fill="#E3E3E3" height="30.2969" rx="2.5" ry="2.5" style="stroke:#181818;stroke-width:0.5;" width="63.376" x="135.3003" y="214.9609"/><text fill="#000000" font-family="sans-serif" font-size="14" lengthAdjust="spacing" textLength="49.376" x="142.3003" y="234.9561">Charlie</text><polygon fill="#181818" points="85.9053,63.4297,95.9053,67.4297,85.9053,71.4297,89.9053,67.4297" style="stroke:#181818;stroke-width:1.0;"/><line style="stroke:#181818;stroke-width:1.0;" x1="31.9028" x2="91.9053" y1="67.4297" y2="67.4297"/><text fill="#000000" font-family="sans-serif" font-size="13" lengthAdjust="spacing" textLength="42.0024" x="38.9028" y="62.3638">Step 1</text><polygon fill="#181818" points="154.9883,92.5625,164.9883,96.5625,154.9883,100.5625,158.9883,96.5625" style="stroke:#181818;stroke-width:1.0;"/><line style="stroke:#181818;stroke-width:1.0;" x1="97.9053" x2="160.9883" y1="96.5625" y2="96.5625"/><text fill="#000000" font-family="sans-serif" font-size="13" lengthAdjust="spacing" textLength="42.0024" x="104.9053" y="91.4966">Step 2</text><rect fill="#EEEEEE" height="3" style="stroke:#EEEEEE;stroke-width:1.0;" width="203.6763" x="0" y="125.1289"/><line style="stroke:#000000;stroke-width:1.0;" x1="0" x2="203.6763" y1="125.1289" y2="125.1289"/><line style="stroke:#000000;stroke-width:1.0;" x1="0" x2="203.6763" y1="128.1289" y2="128.1289"/><rect fill="#EEEEEE" height="23.1328" style="stroke:#000000;stroke-width:2.0;" width="97.1733" x="53.2515" y="114.5625"/><text fill="#000000" font-family="sans-serif" font-size="13" font-weight="bold" lengthAdjust="spacing" textLength="78.6475" x="59.2515" y="130.6294">My Divider</text><polygon fill="#181818" points="108.9053,164.8281,98.9053,168.8281,108.9053,172.8281,104.9053,168.8281" style="stroke:#181818;stroke-width:1.0;"/><line style="stroke:#181818;stroke-width:1.0;" x1="102.9053" x2="165.9883" y1="168.8281" y2="168.8281"/><text fill="#000000" font-family="sans-serif" font-size="13" lengthAdjust="spacing" textLength="42.0024" x="114.9053" y="163.7622">Step 3</text><polygon fill="#181818" points="42.9028,193.9609,32.9028,197.9609,42.9028,201.9609,38.9028,197.9609" style="stroke:#181818;stroke-width:1.0;"/><line style="stroke:#181818;stroke-width:1.0;" x1="36.9028" x2="96.9053" y1="197.9609" y2="197.9609"/><text fill="#000000" font-family="sans-serif" font-size="13" lengthAdjust="spacing" textLength="42.0024" x="48.9028" y="192.895">Step 4</text><!--SRC=[AyxEp2j8B4hCLSZDpyjFpYZApqrLA2agJULop2d8I5JGjLDmAaeioxTI22v9BL0mv0BpGCBE6Ob5EPcfK0aZBbjR1TzA1PVCiioKr285Mrikg09q8umHHe2jW0gR0000]--></g></svg>