<svg xmlns="http://www.w3.org/2000/svg" xmlns:xlink="http://www.w3.org/1999/xlink" contentStyleType="text/css" height="119px" preserveAspectRatio="none" style="width:129px;height:119px;background:#FFFFFF;" version="1.1" viewBox="0 0 129 119" width="129px" zoomAndPan="magnify"><defs/><g><line style="stroke:#181818;stroke-width:0.5;stroke-dasharray:5.0,5.0;" x1="31" x2="31" y1="36.2969" y2="84.2969"/><line style="stroke:#181818;stroke-width:0.5;stroke-dasharray:5.0,5.0;" x1="95.8057" x2="95.8057" y1="36.2969" y2="84.2969"/><rect fill="#E2E2F0" height="30.2969" rx="2.5" ry="2.5" style="stroke:#181818;stroke-width:0.5;" width="53.8057" x="5" y="5"/><text fill="#000000" font-family="sans-serif" font-size="14" lengthAdjust="spacing" textLength="39.8057" x="12" y="24.9951">Alpha</text><rect fill="#E2E2F0" height="30.2969" rx="2.5" ry="2.5" style="stroke:#181818;stroke-width:0.5;" width="53.8057" x="5" y="83.2969"/><text fill="#000000" font-family="sans-serif" font-size="14" lengthAdjust="spacing" textLength="39.8057" x="12" y="103.292">Alpha</text><rect fill="#E2E2F0" height="30.2969" rx="2.5" ry="2.5" style="stroke:#181818;stroke-width:0.5;" width="54.79" x="68.8057" y="5"/><text fill="#000000" font-family="sans-serif" font-size="14" lengthAdjust="spacing" textLength="40.79" x="75.8057" y="24.9951">Bravo</text><rect fill="#E2E2F0" height="30.2969" rx="2.5" ry="2.5" style="stroke:#181818;stroke-width:0.5;" width="54.79" x="68.8057" y="83.2969"/><text fill="#000000" font-family="sans-serif" font-size="14" lengthAdjust="spacing" textLength="40.79" x="75.8057" y="103.292">Bravo</text><polygon fill="#181818" points="84.2007,48.2969,94.2007,52.2969,84.2007,56.2969,88.2007,52.2969" style="stroke:#181818;stroke-width:1.0;"/><line style="stroke:#181818;stroke-width:1.0;" x1="31.9028" x2="90.2007" y1="52.2969" y2="52.2969"/><polygon fill="#181818" points="42.9028,62.2969,32.9028,66.2969,42.9028,70.2969,38.9028,66.2969" style="stroke:#181818;stroke-width:1.0;"/><line style="stroke:#181818;stroke-width:1.0;" x1="36.9028" x2="95.2007" y1="66.2969" y2="66.2969"/><!--SRC=[Symfo4XKqBLJS2fABCld0fCWhYD87000]--></g></svg>