<svg xmlns="http://www.w3.org/2000/svg" xmlns:xlink="http://www.w3.org/1999/xlink" contentStyleType="text/css" height="258px" preserveAspectRatio="none" style="width:501px;height:258px;background:#FFFFFF;" version="1.1" viewBox="0 0 501 258" width="501px" zoomAndPan="magnify"><defs/><g><ellipse cx="56.9" cy="16" fill="#222222" rx="10" ry="10" style="stroke:#222222;stroke-width:1.0;"/><g id="State1"><rect fill="#F1F1F1" height="50.2656" rx="12.5" ry="12.5" style="stroke:#181818;stroke-width:0.5;" width="99.793" x="7" y="103"/><line style="stroke:#181818;stroke-width:0.5;" x1="7" x2="106.793" y1="129.2969" y2="129.2969"/><text fill="#000000" font-family="sans-serif" font-size="14" lengthAdjust="spacing" textLength="45.9648" x="33.9141" y="120.9951">State1</text><text fill="#000000" font-family="sans-serif" font-size="12" lengthAdjust="spacing" textLength="79.793" x="12" y="145.4355">Description 1</text></g><g id="State2"><rect fill="#F1F1F1" height="50.2656" rx="12.5" ry="12.5" style="stroke:#181818;stroke-width:0.5;" width="99.793" x="201" y="103"/><line style="stroke:#181818;stroke-width:0.5;" x1="201" x2="300.793" y1="129.2969" y2="129.2969"/><text fill="#000000" font-family="sans-serif" font-size="14" lengthAdjust="spacing" textLength="45.9648" x="227.9141" y="120.9951">State2</text><text fill="#000000" font-family="sans-serif" font-size="12" lengthAdjust="spacing" textLength="79.793" x="206" y="145.4355">Description 2</text></g><g id="State3"><rect fill="#F1F1F1" height="50.2656" rx="12.5" ry="12.5" style="stroke:#181818;stroke-width:0.5;" width="99.793" x="395" y="103"/><line style="stroke:#181818;stroke-width:0.5;" x1="395" x2="494.793" y1="129.2969" y2="129.2969"/><text fill="#000000" font-family="sans-serif" font-size="14" lengthAdjust="spacing" textLength="45.9648" x="421.9141" y="120.9951">State3</text><text fill="#000000" font-family="sans-serif" font-size="12" lengthAdjust="spacing" textLength="79.793" x="400" y="145.4355">Description 3</text></g><ellipse cx="444.9" cy="241.27" fill="none" rx="11" ry="11" style="stroke:#222222;stroke-width:1.0;"/><ellipse cx="444.9" cy="241.27" fill="#222222" rx="6" ry="6" style="stroke:#222222;stroke-width:1.0;"/><!--link *start* to State1--><g id="link_*start*_State1"><path d="M56.9,26.39 C56.9,43.14 56.9,72.67 56.9,96.73 " fill="none" id="*start*-to-State1" style="stroke:#181818;stroke-width:1.0;"/><polygon fill="#181818" points="56.9,102.73,60.9,93.73,56.9,97.73,52.9,93.73,56.9,102.73" style="stroke:#181818;stroke-width:1.0;"/><text fill="#000000" font-family="sans-serif" font-size="13" lengthAdjust="spacing" textLength="31.7573" x="57.9" y="69.0669">Start</text></g><!--link State1 to State2--><g id="link_State1_State2"><path d="M107.11,128.14 C135.85,128.14 165.8,128.14 194.56,128.14 " fill="none" id="State1-to-State2" style="stroke:#181818;stroke-width:1.0;"/><polygon fill="#181818" points="200.56,128.14,191.56,124.14,195.56,128.14,191.56,132.14,200.56,128.14" style="stroke:#181818;stroke-width:1.0;"/><text fill="#000000" font-family="sans-serif" font-size="13" lengthAdjust="spacing" textLength="58.043" x="124.9" y="121.2069">Change1</text></g><!--link State2 to State3--><g id="link_State2_State3"><path d="M301.11,128.14 C329.85,128.14 359.8,128.14 388.56,128.14 " fill="none" id="State2-to-State3" style="stroke:#181818;stroke-width:1.0;"/><polygon fill="#181818" points="394.56,128.14,385.56,124.14,389.56,128.14,385.56,132.14,394.56,128.14" style="stroke:#181818;stroke-width:1.0;"/><text fill="#000000" font-family="sans-serif" font-size="13" lengthAdjust="spacing" textLength="58.043" x="318.9" y="121.2069">Change2</text></g><!--link State3 to *end*--><g id="link_State3_*end*"><path d="M444.9,153.53 C444.9,177.42 444.9,206.69 444.9,223.97 " fill="none" id="State3-to-*end*" style="stroke:#181818;stroke-width:1.0;"/><polygon fill="#181818" points="444.9,229.97,448.9,220.97,444.9,224.97,440.9,220.97,444.9,229.97" style="stroke:#181818;stroke-width:1.0;"/><text fill="#000000" font-family="sans-serif" font-size="13" lengthAdjust="spacing" textLength="29.5547" x="445.9" y="196.3369">Stop</text></g><!--SRC=[LOmn2e0m34Ntd2Apu53T75pq1exYK2HeaJObZVVNGYsu_VyUl7Iv4ArOZvu3xwUm9rIv2TPcmxOTSL6hP738GnJA_KJtYkcquI031Noghwg30d8lTtEC8zJqJ6aN5zLnmDhvuzhuu_u1]--></g></svg>